<?xml version="1.0" standalone="no"?>
<!DOCTYPE svg PUBLIC "-//W3C//DTD SVG 20010904//EN"
 "http://www.w3.org/TR/2001/REC-SVG-20010904/DTD/svg10.dtd">
<svg version="1.0" xmlns="http://www.w3.org/2000/svg"
 width="1350.000000pt" height="759.000000pt" viewBox="0 0 1350.000000 759.000000"
 preserveAspectRatio="xMidYMid meet">
<metadata>
Created by potrace 1.10, written by Peter Selinger 2001-2011
</metadata>
<g transform="translate(0.000000,759.000000) scale(0.100000,-0.100000)"
fill="#38d1f0" stroke="none">
<path d="M8595 6938 c-22 -5 -47 -14 -55 -19 -8 -5 -24 -13 -36 -18 -24 -11
-74 -74 -74 -94 0 -8 -6 -30 -13 -48 -12 -31 -13 -86 -8 -360 1 -40 8 -55 47
-102 48 -59 127 -107 174 -107 14 0 41 -11 60 -25 19 -14 44 -25 57 -25 13 0
36 -6 51 -13 15 -8 56 -20 92 -27 36 -8 76 -22 90 -32 14 -10 67 -31 119 -48
52 -16 102 -36 110 -44 9 -8 27 -16 41 -18 14 -1 26 -11 28 -20 4 -21 -64 -58
-106 -58 -16 0 -35 -7 -42 -15 -7 -8 -19 -15 -26 -15 -17 0 -139 -38 -182 -57
-18 -8 -50 -17 -70 -20 -20 -3 -44 -11 -52 -18 -8 -7 -28 -15 -45 -19 -16 -4
-48 -16 -70 -26 -22 -10 -67 -27 -99 -36 -33 -10 -66 -26 -75 -36 -8 -10 -23
-18 -33 -18 -11 0 -18 -8 -18 -20 0 -11 -4 -20 -10 -20 -5 0 -13 -12 -16 -27
-4 -16 -12 -35 -19 -43 -9 -11 -10 -33 -5 -80 6 -43 5 -69 -2 -78 -7 -8 -8
-47 -3 -120 5 -59 8 -121 7 -139 0 -21 8 -41 24 -58 13 -14 24 -30 24 -35 0
-16 56 -49 103 -61 62 -15 171 1 241 35 28 14 91 41 139 61 49 19 98 42 110
50 12 7 45 21 72 30 28 9 69 25 92 36 24 10 48 19 53 19 10 0 43 15 197 86 28
13 58 24 65 24 7 0 22 7 32 15 11 8 26 15 35 15 8 0 22 6 30 13 9 8 36 19 61
26 25 7 65 24 89 37 24 13 57 24 73 24 16 0 31 6 34 14 7 17 105 70 149 80 17
4 47 18 67 32 21 13 41 24 46 24 16 0 66 49 59 57 -4 4 -21 -1 -36 -10 -16 -9
-41 -17 -54 -17 -14 0 -29 -5 -32 -10 -8 -12 -72 -40 -92 -40 -8 0 -29 -6 -46
-14 -18 -8 -86 -35 -152 -60 -124 -48 -169 -67 -218 -92 -16 -8 -35 -14 -44
-14 -8 0 -27 -6 -41 -13 -36 -19 -88 -41 -142 -62 -57 -22 -107 -43 -143 -61
-16 -8 -33 -14 -39 -14 -5 0 -26 -7 -46 -16 -21 -8 -50 -21 -67 -28 -16 -8
-50 -21 -75 -31 -69 -26 -169 -69 -213 -91 -16 -8 -37 -14 -47 -14 -9 0 -23
-7 -30 -15 -17 -21 -123 -21 -140 0 -7 8 -18 15 -24 15 -6 0 -19 15 -29 33
-15 28 -17 59 -15 262 l3 229 40 23 c22 12 49 23 60 23 11 0 32 6 47 14 15 8
40 17 57 21 17 4 31 11 31 16 0 5 10 9 23 9 21 0 131 41 144 54 3 3 13 6 22 6
9 0 29 7 45 15 15 8 36 15 45 15 10 0 26 7 37 15 10 8 27 15 37 15 9 0 34 9
54 20 21 11 45 20 53 20 8 0 24 7 34 15 11 8 30 15 42 15 12 0 27 7 34 15 7 8
22 15 34 15 11 1 32 7 46 15 14 8 35 14 47 15 30 0 92 38 72 43 -87 26 -230
73 -254 83 -16 7 -46 20 -67 28 -20 9 -43 16 -51 16 -8 0 -28 7 -43 15 -16 8
-36 15 -44 15 -8 0 -24 7 -34 15 -11 8 -30 15 -42 15 -13 0 -26 5 -29 10 -3 6
-14 10 -23 10 -9 1 -35 9 -57 20 -22 11 -49 20 -60 20 -11 0 -29 7 -39 15 -11
8 -28 15 -37 15 -10 0 -30 6 -46 14 -15 8 -54 22 -85 32 -107 33 -103 24 -100
285 l3 227 35 41 c34 40 38 41 96 41 39 0 76 -7 102 -19 23 -11 59 -27 81 -36
22 -9 54 -22 70 -30 85 -37 107 -45 124 -45 10 0 24 -7 31 -15 7 -8 18 -15 26
-15 7 0 42 -13 77 -30 36 -16 71 -30 79 -30 7 0 22 -7 32 -15 11 -8 28 -15 37
-15 10 0 30 -6 46 -14 15 -8 48 -22 73 -31 25 -9 52 -21 60 -26 8 -5 22 -12
30 -15 8 -3 33 -13 55 -21 22 -9 54 -21 70 -29 17 -7 46 -20 67 -28 20 -9 41
-16 47 -16 6 0 19 -4 29 -9 9 -6 40 -20 67 -32 28 -12 62 -28 77 -35 14 -8 33
-14 41 -14 9 0 28 -6 44 -14 35 -19 87 -40 137 -57 22 -8 61 -34 86 -59 59
-58 77 -114 86 -273 4 -82 10 -117 18 -114 14 5 19 48 18 177 -1 138 -8 175
-38 195 -13 8 -36 33 -50 55 -21 31 -45 49 -108 79 -44 21 -98 43 -118 49 -21
6 -51 20 -67 31 -16 12 -37 21 -47 21 -9 0 -31 11 -48 23 -17 13 -40 26 -51
29 -50 15 -172 61 -190 72 -11 7 -38 19 -60 26 -22 7 -52 21 -67 31 -14 11
-33 16 -42 13 -9 -3 -28 2 -44 12 -15 10 -52 27 -82 37 -30 10 -62 25 -70 32
-16 14 -87 43 -130 52 -14 3 -30 9 -35 14 -6 4 -48 21 -94 38 -46 17 -94 37
-106 45 -23 15 -186 75 -220 81 -11 2 -38 -1 -60 -7z"/>
<path d="M6985 6460 c-88 -6 -179 -27 -233 -56 -15 -8 -34 -14 -43 -14 -9 0
-22 -7 -29 -15 -6 -8 -35 -26 -63 -40 -135 -67 -184 -101 -257 -176 -25 -25
-57 -49 -71 -52 -14 -4 -31 -18 -37 -32 -6 -14 -16 -25 -21 -25 -24 0 -244
-236 -346 -370 -22 -29 -55 -70 -72 -90 -18 -21 -33 -42 -33 -47 0 -6 -18 -33
-40 -61 -22 -27 -40 -53 -40 -57 0 -4 -15 -28 -33 -54 -18 -25 -49 -77 -69
-116 -61 -118 -104 -198 -126 -235 -12 -19 -22 -45 -22 -56 0 -12 -9 -32 -19
-46 -11 -13 -27 -51 -35 -85 -9 -33 -27 -84 -40 -114 -13 -30 -27 -78 -31
-106 -4 -29 -11 -55 -16 -59 -5 -3 -9 -21 -9 -40 0 -20 -4 -44 -10 -54 -11
-20 -18 -84 -25 -225 -3 -49 -7 -106 -10 -125 -3 -25 1 -44 15 -65 12 -18 20
-47 20 -73 0 -23 6 -53 14 -65 8 -12 17 -40 20 -62 13 -76 86 -202 161 -279
96 -98 173 -166 189 -166 7 0 21 -9 30 -19 9 -10 63 -33 119 -51 56 -18 126
-41 156 -52 36 -13 67 -17 91 -13 20 3 47 2 62 -4 14 -5 29 -6 34 -1 5 5 38
14 74 20 36 7 94 21 130 31 36 10 75 19 87 19 27 0 128 43 137 59 4 6 14 11
22 11 16 0 35 9 184 87 52 27 114 55 138 63 23 7 42 16 42 20 0 11 83 40 116
42 128 4 186 -2 251 -28 91 -36 194 -88 288 -144 17 -10 41 -21 55 -25 14 -4
35 -16 48 -26 13 -10 47 -25 75 -35 29 -9 66 -24 83 -34 56 -32 140 -50 261
-56 l118 -6 95 36 c52 20 102 41 110 47 8 5 28 17 43 27 41 25 138 127 157
165 8 18 25 47 37 66 12 18 19 40 16 47 -3 8 2 30 12 49 24 52 29 153 16 305
-9 99 -18 147 -35 184 -13 28 -29 69 -36 91 -7 22 -27 63 -44 90 -18 28 -41
64 -52 81 -54 87 -107 160 -122 168 -9 5 -23 18 -30 28 -8 11 -66 54 -130 96
l-117 76 -105 13 c-80 10 -129 11 -205 3 -118 -13 -120 -13 -210 -52 -105 -46
-128 -55 -155 -63 -14 -4 -32 -13 -40 -20 -8 -7 -32 -18 -52 -24 -20 -7 -52
-22 -70 -34 -18 -12 -55 -33 -83 -47 -27 -14 -53 -30 -57 -36 -4 -6 -22 -17
-40 -25 -18 -7 -46 -23 -63 -35 -41 -29 -170 -88 -227 -104 -26 -7 -52 -18
-58 -25 -7 -8 -48 -13 -123 -14 -103 -2 -120 1 -178 25 -141 59 -146 62 -169
112 -12 26 -28 54 -35 62 -28 34 -39 204 -17 260 51 126 86 184 153 253 143
147 262 211 451 240 110 17 325 -17 403 -64 16 -11 37 -19 45 -19 8 0 37 -11
65 -24 27 -13 89 -36 137 -51 79 -24 97 -26 215 -22 88 3 142 10 173 22 25 9
57 19 72 22 14 3 48 28 75 56 38 40 55 68 73 124 21 66 22 77 11 145 -7 40
-13 84 -14 98 -6 57 -57 171 -98 218 -16 18 -29 39 -29 46 0 8 -7 19 -15 26
-8 6 -30 35 -50 63 -20 29 -53 73 -73 99 -57 71 -282 268 -332 290 -24 10 -50
24 -58 31 -8 6 -59 28 -115 49 -75 28 -128 41 -197 48 -52 5 -102 9 -110 8 -8
-1 -55 -4 -105 -8z m345 -110 c52 -18 124 -48 160 -68 36 -20 76 -42 90 -49
51 -26 239 -202 302 -283 91 -116 193 -278 222 -350 9 -25 20 -82 23 -126 5
-72 3 -87 -18 -128 -68 -137 -245 -197 -446 -150 -93 21 -159 42 -220 70 -29
13 -62 29 -75 34 -13 5 -30 14 -38 19 -34 20 -92 41 -113 41 -13 0 -28 5 -33
10 -16 16 -177 30 -264 24 -124 -9 -260 -58 -385 -138 -58 -37 -215 -191 -215
-210 0 -5 -6 -17 -14 -25 -22 -24 -76 -137 -76 -158 0 -11 -6 -25 -12 -31 -8
-8 -14 -54 -16 -123 -4 -114 -1 -130 47 -227 21 -42 95 -128 126 -144 144 -78
273 -104 380 -77 22 5 60 14 85 18 80 16 211 72 280 119 19 13 44 28 55 33 11
5 34 18 50 29 17 11 39 24 50 30 11 6 47 25 80 43 94 52 197 104 235 120 19 8
49 20 65 27 81 36 272 80 344 79 85 0 178 -29 286 -86 45 -24 176 -161 223
-234 52 -78 115 -208 131 -269 7 -25 16 -61 21 -80 5 -19 10 -57 10 -84 0 -28
5 -76 12 -107 10 -49 9 -69 -6 -136 -47 -201 -147 -315 -346 -394 -23 -9 -75
-13 -155 -13 -116 0 -169 9 -245 42 -19 8 -48 20 -65 27 -39 17 -223 108 -304
151 -161 86 -303 132 -416 135 -92 2 -115 -6 -295 -99 -64 -32 -125 -64 -135
-69 -29 -15 -155 -73 -190 -88 -16 -7 -47 -20 -68 -29 -21 -9 -44 -16 -52 -16
-7 0 -26 -5 -42 -12 -15 -6 -62 -17 -103 -25 -41 -7 -92 -15 -112 -19 -42 -7
-204 20 -255 42 -17 8 -35 14 -40 14 -6 0 -30 11 -54 25 -24 14 -52 28 -61 31
-10 4 -18 10 -18 14 0 5 -8 11 -17 14 -17 5 -57 38 -126 102 -88 82 -156 206
-198 359 -19 67 -19 396 -1 485 18 87 41 178 53 215 6 17 14 44 19 60 11 39
56 162 74 200 61 128 166 332 197 380 10 17 22 37 26 45 15 31 181 268 222
316 14 17 44 53 65 80 124 155 442 436 576 507 25 13 67 36 94 50 99 54 195
81 306 86 169 9 218 5 320 -29z"/>
<path d="M6945 6130 c-3 -5 3 -10 14 -10 12 0 21 5 21 10 0 6 -6 10 -14 10 -8
0 -18 -4 -21 -10z"/>
<path d="M6890 6100 c0 -5 7 -10 15 -10 8 0 15 5 15 10 0 6 -7 10 -15 10 -8 0
-15 -4 -15 -10z"/>
<path d="M6557 5802 c-10 -10 -17 -22 -17 -27 0 -4 9 2 20 15 11 13 20 25 20
27 0 7 -8 2 -23 -15z"/>
<path d="M6470 5695 c0 -8 5 -15 10 -15 6 0 10 7 10 15 0 8 -4 15 -10 15 -5 0
-10 -7 -10 -15z"/>
<path d="M6428 5635 c-20 -26 -24 -55 -8 -55 6 0 10 9 10 20 0 11 7 23 15 26
15 6 21 34 8 34 -5 0 -16 -11 -25 -25z"/>
<path d="M6390 5563 c0 -5 -9 -20 -20 -33 -17 -20 -28 -60 -16 -60 9 0 48 91
42 97 -3 4 -6 2 -6 -4z"/>
<path d="M6326 5443 c-4 -9 -2 -21 4 -27 7 -7 10 -2 10 17 0 31 -5 34 -14 10z"/>
<path d="M6298 5384 c-5 -4 -8 -19 -8 -33 0 -18 3 -22 11 -14 6 6 9 21 7 33
-1 12 -6 18 -10 14z"/>
<path d="M6266 5302 c-4 -13 -5 -26 -2 -29 10 -11 18 4 14 29 l-4 23 -8 -23z"/>
<path d="M8360 4210 c0 -5 23 -10 50 -10 28 0 50 5 50 10 0 6 -22 10 -50 10
-27 0 -50 -4 -50 -10z"/>
<path d="M8480 4180 c0 -5 9 -10 21 -10 11 0 17 5 14 10 -3 6 -13 10 -21 10
-8 0 -14 -4 -14 -10z"/>
<path d="M7470 3930 c0 -5 6 -10 14 -10 8 0 18 5 21 10 3 6 -3 10 -14 10 -12
0 -21 -4 -21 -10z"/>
<path d="M7346 3865 c-3 -8 -17 -15 -31 -15 -14 0 -25 -5 -25 -11 0 -7 10 -9
28 -5 39 10 82 30 82 38 0 15 -48 8 -54 -7z"/>
<path d="M7230 3810 c0 -5 9 -10 19 -10 11 0 23 5 26 10 4 6 -5 10 -19 10 -14
0 -26 -4 -26 -10z"/>
<path d="M9515 5895 c-22 -13 -50 -29 -63 -34 -36 -17 -16 -31 41 -31 85 1
125 -4 138 -17 8 -8 39 -13 78 -13 41 0 70 -5 80 -14 19 -16 118 -46 154 -46
13 0 30 -6 36 -13 7 -9 40 -14 106 -14 l96 -1 34 36 c34 34 42 52 29 65 -4 3
-24 -9 -46 -27 -57 -49 -132 -61 -191 -30 -18 9 -45 20 -62 24 -45 13 -105 36
-168 64 -31 14 -64 26 -74 26 -11 0 -28 7 -39 15 -10 8 -29 15 -41 15 -12 0
-25 5 -28 10 -10 16 -36 10 -80 -15z"/>
<path d="M4830 5150 c-30 -11 -78 -19 -106 -20 -37 0 -61 -7 -87 -24 -37 -26
-185 -98 -226 -111 -14 -4 -47 -23 -74 -42 -41 -29 -56 -34 -84 -30 -27 5 -38
1 -54 -18 -15 -16 -36 -25 -74 -30 -29 -3 -61 -13 -71 -20 -11 -8 -29 -15 -41
-15 -13 0 -23 -6 -23 -15 0 -17 -69 -49 -125 -58 -22 -4 -58 -16 -80 -27 -21
-11 -45 -20 -52 -20 -7 0 -13 -7 -13 -16 0 -12 -10 -14 -47 -12 -42 3 -48 0
-51 -18 -2 -15 -15 -25 -41 -33 -21 -6 -43 -11 -49 -11 -6 0 -28 -11 -48 -25
-20 -14 -47 -25 -60 -25 -33 0 -54 -10 -54 -26 0 -8 -8 -14 -19 -14 -10 0 -24
-7 -31 -15 -7 -8 -21 -15 -31 -15 -11 0 -24 -11 -30 -24 -6 -13 -22 -29 -35
-35 -13 -5 -26 -23 -30 -38 -4 -15 -12 -35 -19 -43 -32 -40 -40 -86 -39 -235
0 -135 3 -159 28 -235 21 -67 34 -91 60 -112 65 -52 163 -105 232 -126 51 -16
76 -29 88 -47 9 -14 25 -25 36 -25 11 0 40 -5 65 -12 32 -9 45 -17 45 -30 0
-11 5 -15 15 -12 18 7 105 -25 105 -38 0 -6 7 -7 16 -4 8 3 22 -1 30 -9 9 -8
27 -18 42 -22 15 -3 60 -23 100 -45 39 -21 79 -38 87 -38 8 0 37 -13 63 -30
27 -16 58 -30 68 -30 11 0 46 -13 79 -29 33 -16 74 -33 90 -37 17 -4 35 -10
40 -14 18 -13 192 -80 209 -80 9 0 24 -9 34 -21 19 -23 53 -39 92 -45 83 -12
100 -17 100 -29 0 -30 26 -35 68 -14 23 12 42 25 42 30 0 5 9 9 20 9 30 0 90
32 90 48 0 8 14 27 30 42 31 29 35 47 31 165 -1 28 3 65 8 82 6 20 6 35 0 38
-5 4 -9 48 -9 98 0 51 -4 109 -9 129 -12 50 -100 134 -160 150 -24 7 -50 23
-59 35 -12 20 -23 23 -73 23 -47 0 -63 4 -76 20 -10 11 -36 22 -62 26 -26 4
-55 13 -66 20 -11 8 -32 14 -47 14 -15 0 -43 9 -62 21 -19 11 -53 22 -76 23
-25 2 -46 10 -54 21 -9 12 -15 14 -20 7 -9 -15 -106 32 -106 51 0 23 44 56
102 76 31 11 68 27 83 37 17 11 46 18 77 18 34 0 47 3 44 12 -7 19 39 44 82
44 24 0 66 13 111 35 39 19 78 35 86 35 23 0 95 31 95 41 0 5 14 9 31 9 21 0
45 12 78 40 50 42 57 59 76 187 4 24 11 45 16 49 5 3 7 9 4 13 -5 9 -9 49 -21
216 -8 114 -17 137 -73 188 -23 20 -41 41 -41 46 0 7 -80 21 -120 21 -8 -1
-40 -9 -70 -20z m163 -80 c15 -10 37 -35 47 -56 18 -35 20 -59 20 -261 0 -210
-1 -224 -20 -243 -11 -11 -28 -20 -37 -20 -10 0 -31 -7 -47 -15 -15 -8 -36
-15 -45 -15 -10 0 -26 -7 -37 -15 -10 -8 -28 -15 -40 -15 -11 0 -29 -7 -40
-15 -10 -8 -28 -15 -40 -15 -11 0 -29 -7 -40 -15 -10 -8 -28 -15 -40 -15 -11
0 -29 -7 -40 -15 -10 -8 -28 -15 -39 -15 -11 0 -33 -7 -49 -15 -15 -8 -36 -15
-45 -15 -10 0 -26 -7 -37 -15 -10 -8 -28 -15 -40 -15 -11 0 -29 -7 -40 -15
-10 -8 -27 -15 -37 -15 -11 0 -33 -6 -50 -14 -63 -27 -168 -64 -212 -75 -46
-12 -96 -41 -90 -51 4 -6 18 -10 33 -10 25 -1 82 -18 155 -48 16 -7 32 -12 37
-12 4 0 21 -7 36 -15 16 -8 36 -15 45 -15 9 0 22 -7 29 -15 7 -8 23 -15 37
-15 13 0 31 -7 39 -15 9 -8 27 -15 42 -15 15 0 36 -7 46 -15 11 -8 29 -15 40
-15 12 0 30 -7 40 -15 11 -8 29 -15 40 -15 12 0 30 -7 40 -15 11 -8 29 -15 41
-15 12 0 30 -7 41 -15 10 -8 27 -15 37 -15 9 0 25 -4 35 -10 22 -13 100 -40
132 -47 36 -7 71 -24 98 -47 22 -19 22 -24 22 -245 0 -208 -2 -229 -20 -259
-20 -33 -68 -68 -108 -78 -12 -4 -37 1 -56 10 -19 9 -39 16 -44 16 -6 0 -23 6
-39 14 -37 19 -81 38 -178 76 -44 18 -93 38 -110 45 -16 7 -50 21 -75 30 -25
10 -60 24 -77 32 -65 28 -99 41 -143 58 -25 10 -61 24 -80 33 -19 8 -51 22
-70 30 -19 8 -48 21 -63 28 -16 8 -35 14 -42 14 -7 0 -26 6 -42 14 -36 17 -86
39 -143 61 -56 22 -107 44 -142 62 -14 7 -34 13 -45 13 -10 0 -27 7 -37 15
-11 8 -30 15 -42 15 -12 0 -27 7 -34 15 -7 8 -23 15 -36 15 -12 0 -26 5 -29
10 -3 6 -14 10 -23 10 -39 0 -162 86 -162 113 0 4 -6 15 -14 22 -19 20 -11
365 10 412 8 17 14 35 14 41 0 21 101 108 147 125 26 10 63 25 81 32 18 8 49
22 70 31 20 8 50 22 65 30 16 8 35 14 44 14 8 0 27 6 41 14 48 24 102 46 116
46 8 0 19 7 26 15 7 8 21 15 32 15 11 0 32 6 46 13 15 8 42 21 60 30 19 9 40
17 49 17 8 0 27 6 41 13 15 8 42 21 60 30 19 9 42 17 52 17 9 0 23 7 30 15 7
8 22 15 34 15 12 0 31 7 42 15 10 8 29 15 40 15 12 0 27 7 34 15 7 8 20 15 29
15 10 0 26 7 37 15 10 8 27 15 37 15 11 0 31 6 45 13 15 8 42 21 60 30 19 9
42 17 52 17 9 0 23 7 30 15 7 8 23 15 35 15 12 0 28 7 35 15 7 8 21 15 32 15
11 0 32 6 46 13 119 61 152 65 215 27z"/>
<path d="M3876 4085 c-11 -8 -29 -15 -41 -15 -12 0 -30 -7 -41 -15 -10 -8 -28
-15 -39 -15 -11 0 -29 -6 -40 -14 -11 -7 -31 -16 -45 -19 -41 -8 -122 -39
-194 -73 -72 -34 -183 -5 -217 57 -9 17 -13 19 -20 8 -16 -25 -10 -44 26 -83
l34 -38 103 5 c97 4 170 18 210 38 10 5 25 9 34 9 9 0 30 6 47 14 63 28 101
36 165 36 36 0 81 5 99 12 26 9 52 9 120 -1 47 -6 89 -13 92 -14 3 -1 7 3 9 8
1 6 -8 12 -20 13 -13 2 -27 10 -31 18 -4 8 -19 14 -32 14 -13 0 -30 7 -39 15
-8 8 -21 15 -29 15 -8 0 -26 9 -40 20 -30 23 -84 26 -111 5z"/>
<path d="M4440 3760 c0 -5 12 -10 28 -10 21 0 24 2 12 10 -20 13 -40 13 -40 0z"/>
<path d="M12778 4363 c12 -2 32 -2 45 0 12 2 2 4 -23 4 -25 0 -35 -2 -22 -4z"/>
<path d="M12480 4331 c28 -8 118 -6 127 3 4 3 -29 6 -73 5 -51 0 -70 -3 -54
-8z"/>
<path d="M11845 4309 c-12 -18 25 -49 50 -43 13 3 33 1 44 -6 23 -12 61 -5 61
11 0 33 -138 67 -155 38z"/>
<path d="M12317 4299 c8 -8 16 -8 30 0 16 9 14 10 -11 11 -22 0 -27 -3 -19
-11z"/>
<path d="M11810 4252 c-19 -2 -39 -8 -44 -13 -6 -5 -20 -9 -32 -9 -13 0 -29
-6 -37 -14 -8 -8 -30 -18 -50 -21 -43 -8 -40 -25 4 -25 17 0 32 6 35 15 4 10
20 15 46 15 52 0 115 19 122 36 7 17 -1 20 -44 16z"/>
<path d="M11952 4201 c-7 -13 -27 -23 -54 -27 l-42 -7 31 -15 c30 -14 35 -13
82 12 28 14 59 26 70 26 11 0 23 5 26 10 3 6 -4 10 -18 10 -14 0 -37 3 -53 6
-22 4 -32 0 -42 -15z"/>
<path d="M11538 4163 c-43 -7 -33 -21 14 -20 23 1 43 8 46 15 4 12 -7 13 -60
5z"/>
<path d="M11242 4126 c-37 -20 -64 -63 -60 -98 2 -25 8 -33 23 -33 14 0 22 10
28 36 11 48 43 66 88 50 26 -9 38 -8 63 5 17 9 48 20 69 23 21 3 38 11 37 16
0 14 -222 15 -248 1z"/>
<path d="M11349 4001 c-20 -17 -50 -31 -70 -33 -29 -2 -34 -7 -34 -28 0 -18 6
-26 22 -28 34 -5 99 16 131 43 15 13 40 27 55 30 36 9 34 21 -4 34 -47 16 -61
14 -100 -18z"/>
<path d="M5430 2532 c-14 -2 -31 -9 -38 -14 -18 -15 -122 -41 -160 -39 -19 1
-42 6 -52 11 -39 21 -174 42 -230 37 -133 -14 -265 -102 -312 -207 -22 -49
-47 -221 -41 -285 2 -22 3 -102 3 -178 0 -93 5 -149 14 -171 17 -40 104 -114
145 -122 17 -4 34 -10 37 -15 13 -22 71 7 128 65 58 58 61 64 68 126 4 36 8
70 9 75 1 6 -2 29 -6 53 -7 38 -6 42 14 42 19 0 21 -6 21 -54 0 -30 5 -58 11
-62 7 -4 9 -22 6 -44 -6 -46 11 -86 54 -127 19 -18 39 -38 46 -46 6 -8 32 -18
57 -21 53 -8 152 26 170 59 5 11 18 32 27 46 10 15 21 44 25 65 8 47 21 74 35
74 5 0 12 -8 15 -17 18 -53 67 -143 97 -177 32 -36 40 -40 96 -44 57 -4 63 -2
111 32 38 27 57 35 75 30 24 -6 25 -4 25 34 l0 41 55 6 c60 8 75 25 23 25 -38
0 -63 13 -54 28 3 5 0 15 -8 21 -10 9 -14 59 -15 222 -1 115 -4 215 -5 222
-31 111 -43 134 -104 194 -54 52 -74 65 -140 86 -77 25 -154 36 -202 29z
m-319 -133 c33 -12 70 -32 84 -45 33 -31 56 -30 93 2 45 39 125 63 212 63 120
0 208 -47 248 -131 18 -40 20 -66 23 -333 l3 -290 -87 -3 c-66 -2 -87 0 -87
10 -1 7 0 136 0 286 1 273 1 273 -22 292 -32 27 -121 27 -173 0 -74 -38 -75
-44 -75 -320 1 -135 1 -251 0 -257 0 -10 -25 -13 -90 -13 -65 0 -90 3 -90 13
0 6 0 122 0 257 0 276 -1 282 -75 320 -52 27 -141 27 -173 0 -23 -19 -23 -19
-22 -292 0 -150 1 -279 0 -285 0 -14 -147 -19 -165 -5 -15 10 -3 579 13 614
17 41 81 98 132 119 65 26 177 25 251 -2z m369 -385 c0 -32 -4 -44 -12 -42
-13 5 -20 51 -13 76 10 29 25 8 25 -34z m-2 -108 c-2 -15 -7 -28 -13 -29 -12
-2 -19 38 -10 60 9 25 27 1 23 -31z"/>
<path d="M3442 2510 c-177 -53 -296 -213 -310 -417 -7 -106 -7 -285 0 -333 3
-19 6 -44 7 -56 2 -32 78 -112 128 -136 36 -17 49 -19 69 -9 14 6 33 11 43 11
25 0 110 87 132 136 10 23 25 46 32 53 8 6 65 12 140 13 142 3 166 -6 199 -75
20 -41 80 -102 122 -124 20 -10 47 -14 83 -11 47 4 59 10 98 48 78 77 82 93
79 345 -3 217 -4 221 -33 295 -39 101 -124 188 -231 238 l-75 35 -210 3 c-182
2 -219 0 -273 -16z m481 -106 c29 -8 59 -20 67 -25 8 -5 21 -12 29 -16 19 -9
81 -72 81 -82 0 -5 7 -14 15 -21 8 -7 15 -20 15 -29 0 -9 7 -29 15 -45 12 -23
15 -76 15 -278 l0 -249 -87 3 -88 3 0 109 0 110 -290 0 -290 0 4 -113 3 -112
-88 3 -89 3 -3 240 c-3 253 -3 248 47 354 27 58 106 124 161 136 19 4 42 11
50 16 8 5 97 9 198 9 139 0 196 -4 235 -16z"/>
<path d="M3494 2252 c-18 -9 -44 -32 -59 -50 -23 -27 -27 -42 -28 -98 l-2 -65
290 0 290 -1 -1 65 c-1 76 -24 116 -84 147 -35 18 -59 20 -207 20 -139 -1
-173 -4 -199 -18z"/>
<path d="M6540 2520 c-114 -15 -230 -99 -281 -205 -33 -69 -38 -112 -40 -331
-1 -177 3 -190 87 -292 65 -80 124 -114 229 -130 87 -14 644 -16 679 -2 37 14
126 106 128 133 8 100 8 100 -43 157 -37 41 -49 62 -49 87 0 17 4 34 9 37 5 3
12 22 16 43 5 28 1 48 -15 83 l-22 47 23 35 c13 20 37 52 53 72 24 30 29 46
29 90 0 65 -32 113 -101 153 l-44 26 -302 2 c-165 2 -326 -1 -356 -5z m708
-177 l-3 -77 -350 2 c-402 3 -387 6 -404 -83 -5 -27 -6 -54 -2 -58 5 -5 160
-8 345 -7 l337 1 -3 -77 -3 -78 -339 3 -339 3 6 -62 c3 -33 11 -67 17 -75 11
-13 69 -15 376 -15 l364 0 0 -77 0 -78 -382 4 c-349 3 -386 5 -419 22 -42 21
-95 83 -104 122 -4 15 -11 30 -16 33 -5 3 -9 88 -9 188 0 207 9 245 75 311 73
73 77 73 488 74 l368 1 -3 -77z"/>
<path d="M7985 2520 c-110 -26 -217 -111 -263 -209 -27 -58 -28 -69 -31 -361
-2 -115 15 -173 68 -237 14 -17 34 -43 44 -57 9 -14 28 -31 41 -38 13 -7 43
-24 67 -37 42 -24 54 -25 229 -28 102 -1 195 -5 206 -8 12 -3 44 -1 70 4 27 5
91 5 142 2 52 -4 110 -5 130 -2 33 6 38 11 59 66 18 48 29 63 53 72 26 10 30
16 30 48 0 49 -16 77 -43 73 -44 -6 -68 160 -41 290 5 27 34 29 41 2 3 -11 8
-20 12 -20 11 0 91 127 91 144 0 3 -15 6 -34 6 -27 0 -35 -5 -40 -22 -3 -13
-16 -36 -29 -52 l-24 -30 -27 27 c-14 14 -26 33 -26 42 0 24 38 55 68 55 19 0
33 9 47 30 11 16 23 30 28 30 4 0 7 9 7 20 0 13 -7 20 -20 20 -15 0 -22 8 -26
30 -4 16 -22 47 -41 70 -61 71 -67 72 -433 75 -179 1 -338 -1 -355 -5z m733
-177 l-3 -77 -350 2 c-336 2 -351 2 -373 -17 -28 -25 -45 -131 -21 -131 8 -1
162 -2 344 -3 l330 -2 1 -72 c0 -45 -4 -73 -10 -74 -6 0 -159 -1 -341 -2
l-330 -2 -3 -46 c-2 -34 2 -52 18 -72 l21 -27 360 0 360 0 -3 -77 -3 -76 -384
1 c-324 2 -388 5 -401 17 -9 8 -21 15 -27 15 -17 0 -71 66 -89 108 -23 54 -23
410 0 464 27 62 89 115 166 141 8 3 178 6 378 6 l363 1 -3 -77z"/>
<path d="M9396 2501 c-21 -11 -43 -18 -47 -15 -14 8 -127 -109 -154 -160 -33
-61 -40 -137 -40 -396 1 -181 2 -199 23 -245 27 -59 59 -95 83 -95 9 0 19 -5
21 -11 2 -6 30 -13 63 -16 57 -5 63 -3 105 29 85 64 89 77 104 306 2 35 7 66
9 69 9 8 27 -7 27 -23 0 -8 4 -22 8 -32 74 -152 98 -196 118 -209 13 -8 24
-21 24 -28 0 -19 174 -99 244 -113 55 -11 64 -10 110 12 28 13 64 26 80 30 15
4 52 30 82 57 40 39 59 67 78 118 25 63 26 76 26 269 0 123 4 211 11 223 8 16
3 34 -25 92 -40 84 -87 132 -136 141 -112 22 -108 23 -160 -33 -57 -58 -65
-72 -74 -123 -4 -21 -11 -38 -15 -38 -5 0 -41 31 -81 69 -48 47 -95 80 -143
103 -67 32 -79 34 -187 37 -99 2 -121 -1 -154 -18z m855 -380 c-3 -297 -3
-305 -26 -340 -25 -39 -53 -67 -100 -96 -43 -28 -167 -27 -221 0 -146 75 -194
164 -194 363 0 137 -10 162 -78 202 -45 27 -138 27 -170 0 -23 -19 -23 -19
-22 -292 0 -150 1 -279 0 -285 0 -10 -25 -13 -90 -13 l-90 0 0 269 c0 226 3
277 17 322 21 66 82 128 150 152 63 23 174 22 240 -1 64 -22 163 -96 163 -121
0 -5 7 -14 15 -21 8 -7 15 -18 15 -26 0 -7 5 -25 11 -41 6 -15 12 -88 12 -160
l2 -133 41 -40 c33 -34 47 -41 83 -43 35 -1 46 3 62 23 19 24 20 40 17 303 -2
152 0 278 5 280 4 1 42 2 84 2 l77 0 -3 -304z m-666 -81 c7 -21 0 -40 -16 -40
-5 0 -9 14 -9 30 0 34 15 40 25 10z"/>
<path d="M6116 1617 c-9 -33 -8 -37 9 -37 9 0 15 9 15 24 0 33 -16 42 -24 13z"/>
<path d="M6056 1523 c-40 -20 -59 -24 -98 -21 -38 4 -48 2 -44 -8 3 -8 -2 -30
-11 -51 -16 -39 -12 -67 19 -129 8 -18 6 -28 -13 -53 -21 -29 -22 -33 -9 -85
7 -30 10 -66 6 -80 -3 -14 -9 -37 -12 -51 -5 -20 3 -34 42 -75 57 -60 104 -75
199 -65 54 6 67 12 108 50 39 35 47 49 47 78 0 19 -8 45 -18 58 -15 20 -18 41
-18 120 1 69 6 101 16 114 8 10 15 36 15 57 0 35 -6 45 -40 74 -22 18 -51 39
-65 46 -14 7 -31 21 -38 31 -17 22 -27 21 -86 -10z m165 -120 c7 -7 9 -22 5
-38 l-7 -26 -127 3 -127 3 -3 29 c-2 16 1 32 8 36 19 12 238 6 251 -7z m-35
-177 c3 -13 1 -33 -4 -43 -9 -16 -22 -18 -104 -17 -52 0 -100 4 -106 8 -13 8
-17 58 -5 69 3 4 53 7 109 7 101 0 104 -1 110 -24z m32 -160 c18 -11 14 -54
-5 -64 -14 -6 -180 -9 -240 -3 -20 2 -17 69 4 73 32 6 230 1 241 -6z"/>
<path d="M4842 1504 c-40 -21 -92 -95 -92 -133 0 -16 7 -34 16 -41 31 -27 68
-103 70 -149 2 -25 10 -78 19 -118 13 -59 22 -77 51 -102 41 -37 80 -40 118
-10 41 33 58 77 67 174 10 103 21 137 61 183 28 32 35 71 22 117 -7 25 -88 78
-123 80 -14 1 -60 5 -101 9 -60 5 -81 4 -108 -10z m271 -93 c5 0 7 -16 5 -33
l-3 -33 -150 0 c-149 0 -150 0 -153 23 -7 47 -3 48 149 46 79 -1 148 -2 152
-3z m-127 -99 c10 -6 22 -254 15 -308 -2 -17 -43 -25 -58 -12 -18 14 -19 298
-1 316 14 14 28 15 44 4z"/>
<path d="M7201 1496 c-43 -16 -136 -107 -164 -160 -18 -34 -22 -58 -22 -136 0
-88 2 -98 28 -134 15 -21 27 -44 27 -50 0 -17 119 -92 160 -102 41 -9 109 -7
162 7 43 11 112 87 121 134 5 26 -1 36 -46 78 -28 26 -59 47 -68 47 -25 0 -41
24 -27 38 7 7 17 12 23 12 21 0 105 95 111 127 5 27 0 38 -31 76 -21 25 -48
50 -60 55 -38 17 -176 22 -214 8z m143 -75 c3 -4 23 -11 44 -15 42 -6 61 -32
54 -74 -5 -32 -27 -37 -51 -13 -26 26 -119 29 -160 5 -56 -33 -78 -121 -46
-184 33 -64 139 -92 192 -50 14 11 32 20 40 20 15 0 36 -47 29 -66 -9 -24 -63
-43 -128 -46 -51 -1 -74 3 -108 21 -24 13 -50 30 -57 39 -27 34 -63 122 -63
154 0 65 84 182 139 194 14 3 33 9 41 14 20 12 67 12 74 1z m-4 -215 c0 -8 -4
-18 -10 -21 -5 -3 -10 3 -10 14 0 12 5 21 10 21 6 0 10 -6 10 -14z"/>
<path d="M8374 1490 c-12 -5 -28 -18 -36 -29 -8 -11 -26 -25 -41 -30 -20 -8
-26 -17 -25 -38 0 -15 -3 -80 -7 -143 -4 -64 -5 -142 -1 -174 7 -51 14 -65 54
-108 52 -56 66 -57 134 -8 53 38 69 38 117 -5 21 -19 48 -35 60 -35 28 0 97
44 113 72 14 25 17 315 4 400 -6 43 -11 49 -53 72 -25 14 -52 26 -61 26 -8 0
-35 -16 -59 -36 -52 -43 -74 -41 -132 11 -21 19 -40 35 -42 34 -2 0 -14 -4
-25 -9z m34 -69 c15 -8 17 -32 17 -218 l-1 -208 -34 0 -35 0 -3 205 c-2 184
-1 206 15 217 20 15 20 15 41 4z m259 -15 c4 -8 6 -104 3 -213 l-5 -198 -24
-3 c-13 -2 -28 1 -33 6 -7 7 -14 309 -9 410 1 17 58 15 68 -2z m-95 -181 c18
-39 -4 -57 -66 -53 -45 3 -51 6 -54 26 -6 43 4 52 58 52 44 0 52 -3 62 -25z"/>
<path d="M8743 53 c-3 -10 -13 -26 -21 -35 -20 -24 3 -24 27 -1 26 26 34 53
15 53 -8 0 -17 -8 -21 -17z"/>
<path d="M8850 55 c0 -9 7 -18 15 -21 8 -4 15 -12 15 -20 0 -8 5 -14 10 -14 6
0 10 7 10 15 0 8 -4 15 -9 15 -5 0 -11 9 -14 20 -6 23 -27 27 -27 5z"/>
</g>
</svg>
