<?xml version="1.0" standalone="no"?>
<!DOCTYPE svg PUBLIC "-//W3C//DTD SVG 20010904//EN"
 "http://www.w3.org/TR/2001/REC-SVG-20010904/DTD/svg10.dtd">
<svg version="1.0" xmlns="http://www.w3.org/2000/svg"
 width="300.000000pt" height="169.000000pt" viewBox="0 0 300.000000 169.000000"
 preserveAspectRatio="xMidYMid meet">
<metadata>
Created by potrace 1.10, written by Peter Selinger 2001-2011
</metadata>
<g transform="translate(0.000000,169.000000) scale(0.100000,-0.100000)"
fill="#38d1f0" stroke="none">
<path d="M1903 1547 c-26 -11 -35 -34 -38 -92 -1 -32 3 -44 24 -62 14 -13 31
-23 38 -23 6 0 36 -10 67 -21 56 -22 65 -39 21 -39 -13 0 -26 -4 -29 -9 -3 -4
-26 -14 -51 -21 -55 -15 -69 -38 -66 -105 4 -85 37 -97 135 -51 28 13 89 39
136 58 47 18 87 36 88 41 2 4 7 5 12 2 4 -3 19 8 33 24 14 17 26 28 28 26 2
-2 3 21 2 52 -1 46 -6 58 -30 79 -15 13 -34 24 -41 24 -8 0 -26 6 -40 14 -46
24 -146 68 -164 71 -9 2 -37 12 -60 23 -32 14 -49 16 -65 9z m189 -83 c89 -36
168 -70 174 -75 15 -12 26 -97 15 -116 -13 -25 -363 -163 -379 -150 -8 7 -12
29 -10 65 l3 55 89 33 90 33 87 -21 c86 -21 119 -20 119 3 0 8 -4 8 -15 -1
-15 -13 -57 0 -295 88 l-75 28 -3 48 c-4 57 2 76 22 76 8 0 88 -30 178 -66z"/>
<path d="M1920 1483 c8 -3 24 -10 35 -15 20 -9 20 -9 1 6 -11 9 -27 16 -35 15
-14 0 -14 -1 -1 -6z"/>
<path d="M1982 1243 c-24 -8 -41 -17 -39 -19 4 -5 97 26 97 32 0 6 -11 4 -58
-13z"/>
<path d="M1493 1430 c-156 -69 -324 -326 -324 -495 0 -75 42 -146 107 -182 63
-35 116 -32 211 10 95 43 124 45 186 13 124 -66 206 -64 254 7 21 31 38 147
22 147 -4 0 -9 10 -13 23 -14 56 -112 137 -167 137 -12 0 -72 -25 -134 -55
-79 -39 -123 -55 -152 -55 -95 0 -107 115 -17 170 51 32 123 33 186 3 70 -34
110 -30 152 11 31 31 33 38 26 70 -9 43 -41 88 -100 144 -76 74 -151 90 -237
52z m199 -47 c51 -37 106 -109 114 -151 14 -67 -67 -93 -161 -51 -121 53 -249
-8 -262 -125 -7 -59 25 -96 89 -103 42 -5 56 0 145 48 85 46 106 53 155 53 50
1 61 -3 89 -29 43 -40 69 -100 69 -159 0 -41 -5 -53 -34 -82 -47 -47 -86 -45
-196 6 -47 22 -95 40 -106 40 -12 0 -56 -16 -98 -36 -98 -47 -149 -53 -203
-25 -108 54 -129 177 -59 336 52 115 171 255 257 298 55 28 147 19 201 -20z"/>
<path d="M1593 1383 c9 -2 23 -2 30 0 6 3 -1 5 -18 5 -16 0 -22 -2 -12 -5z"/>
<path d="M1534 1368 c10 -6 22 -6 26 -2 5 5 -3 10 -18 11 -22 1 -24 0 -8 -9z"/>
<path d="M1475 1316 c-43 -44 -100 -148 -91 -170 3 -7 5 -7 5 1 2 34 56 126
97 167 25 25 43 46 40 46 -4 0 -26 -20 -51 -44z"/>
<path d="M1845 941 c22 -4 47 -10 55 -15 8 -4 6 0 -4 8 -11 9 -36 15 -55 15
l-36 -2 40 -6z"/>
<path d="M1647 874 c-16 -9 -27 -18 -24 -21 6 -5 67 24 67 32 0 8 -14 5 -43
-11z"/>
<path d="M2341 1144 c0 -11 3 -14 6 -6 3 7 2 16 -1 19 -3 4 -6 -2 -5 -13z"/>
<path d="M989 1115 c-42 -18 -96 -39 -120 -45 -24 -7 -46 -15 -49 -19 -3 -4
-24 -15 -48 -26 -57 -25 -72 -48 -72 -111 0 -66 10 -75 158 -137 210 -88 234
-96 259 -84 25 11 36 51 30 104 -4 39 -20 59 -53 67 -14 4 -23 10 -20 15 3 4
-7 6 -22 4 -21 -4 -24 -2 -12 6 12 9 9 11 -15 11 -16 0 -40 6 -53 13 -21 12
-19 14 35 32 81 26 129 51 137 70 10 26 7 82 -6 110 -16 35 -55 33 -149 -10z
m137 -10 c3 -12 4 -39 2 -60 l-3 -39 -112 -40 c-62 -23 -113 -43 -113 -46 0
-3 51 -24 113 -46 l112 -41 3 -55 c5 -92 0 -92 -205 -7 -98 40 -186 80 -197
88 -14 13 -17 26 -13 64 2 27 9 53 14 58 18 18 366 157 380 152 7 -3 16 -15
19 -28z"/>
<path d="M825 898 c-27 -11 -62 -18 -76 -16 -19 3 -25 0 -22 -9 7 -17 31 -16
81 1 22 8 50 12 63 9 17 -5 20 -3 14 8 -7 12 -6 12 7 1 9 -7 19 -9 22 -4 3 5
-5 14 -17 19 -17 8 -34 6 -72 -9z"/>
<path d="M920 866 c0 -2 7 -7 16 -10 8 -3 12 -2 9 4 -6 10 -25 14 -25 6z"/>
<path d="M967 849 c7 -7 15 -10 18 -7 3 3 -2 9 -12 12 -14 6 -15 5 -6 -5z"/>
<path d="M1027 829 c7 -7 15 -10 18 -7 3 3 -2 9 -12 12 -14 6 -15 5 -6 -5z"/>
<path d="M2908 983 c12 -2 32 -2 45 0 12 2 2 4 -23 4 -25 0 -35 -2 -22 -4z"/>
<path d="M2750 970 l-45 -7 40 -1 c22 0 60 3 85 7 l45 8 -40 0 c-22 0 -60 -3
-85 -7z"/>
<path d="M2630 959 c0 -6 -6 -9 -12 -6 -7 2 -22 0 -33 -6 -11 -6 -35 -13 -54
-16 -19 -4 -40 -16 -49 -29 -13 -20 -13 -22 2 -16 9 3 16 9 16 13 0 11 98 33
111 25 8 -4 9 -3 5 4 -4 7 -3 12 3 12 5 0 16 3 25 6 9 3 16 1 16 -5 0 -6 -7
-11 -17 -11 -9 0 -14 -2 -11 -5 3 -4 18 -3 33 1 20 5 23 9 13 15 -10 7 -8 9 7
10 17 1 16 2 -5 9 -36 12 -50 11 -50 -1z"/>
<path d="M2978 953 c7 -3 16 -2 19 1 4 3 -2 6 -13 5 -11 0 -14 -3 -6 -6z"/>
<path d="M2733 943 c9 -2 23 -2 30 0 6 3 -1 5 -18 5 -16 0 -22 -2 -12 -5z"/>
<path d="M2768 923 c7 -3 16 -2 19 1 4 3 -2 6 -13 5 -11 0 -14 -3 -6 -6z"/>
<path d="M2605 900 c-3 -5 -2 -10 4 -10 5 0 13 5 16 10 3 6 2 10 -4 10 -5 0
-13 -4 -16 -10z"/>
<path d="M2493 874 c-28 -25 -28 -25 -4 -18 14 3 38 15 55 25 l31 19 -27 0
c-15 0 -39 -11 -55 -26z"/>
<path d="M2390 830 c-12 -7 -12 -10 -1 -10 7 0 11 -6 7 -15 -8 -22 7 -18 21 5
11 16 10 18 -4 13 -11 -4 -14 -3 -9 5 9 14 6 15 -14 2z"/>
<path d="M2327 789 c-4 -16 -3 -18 9 -8 16 13 19 29 5 29 -5 0 -11 -9 -14 -21z"/>
<path d="M2325 754 l-30 -26 33 22 c17 12 32 23 32 26 0 7 -4 5 -35 -22z"/>
<path d="M2238 718 c-13 -13 -19 -20 -14 -15 19 14 28 7 15 -10 -9 -11 -3 -10
19 6 17 12 32 25 32 29 0 3 -5 1 -12 -6 -17 -17 -33 -15 -18 3 19 23 4 18 -22
-7z"/>
<path d="M2341 704 c0 -11 3 -14 6 -6 3 7 2 16 -1 19 -3 4 -6 -2 -5 -13z"/>
<path d="M2160 665 c-19 -14 -29 -25 -23 -25 7 0 15 5 18 10 9 15 27 12 19 -2
-4 -8 -3 -10 2 -5 5 5 9 12 9 15 0 4 4 13 8 20 11 16 8 15 -33 -13z"/>
<path d="M2360 676 c0 -2 7 -7 16 -10 8 -3 12 -2 9 4 -6 10 -25 14 -25 6z"/>
<path d="M2083 604 l-28 -25 33 22 c17 13 32 24 32 26 0 8 -11 1 -37 -23z"/>
<path d="M2305 580 c-3 -5 -2 -10 4 -10 5 0 13 5 16 10 3 6 2 10 -4 10 -5 0
-13 -4 -16 -10z"/>
<path d="M2077 566 c-9 -7 -17 -19 -17 -25 0 -7 -4 -10 -8 -7 -5 3 -9 0 -10
-7 -12 -141 -6 -177 32 -177 30 0 43 11 51 41 l6 26 34 -34 c34 -34 56 -40 98
-24 28 11 45 52 48 116 2 53 -7 72 -41 83 -30 11 -50 0 -50 -26 0 -10 -8 -7
-30 8 -16 12 -42 22 -57 23 -16 1 -30 5 -33 9 -3 3 -13 1 -23 -6z m98 -46 c10
-12 21 -40 24 -63 5 -33 10 -42 25 -42 18 0 19 6 17 63 -2 57 -1 62 18 62 19
0 21 -6 21 -67 0 -71 -16 -103 -52 -103 -31 0 -68 45 -68 83 0 38 -21 63 -45
53 -11 -4 -15 -22 -15 -71 0 -58 -2 -65 -20 -65 -18 0 -20 7 -20 67 0 48 5 72
17 85 22 25 75 23 98 -2z"/>
<path d="M741 549 c-22 -13 -32 -28 -36 -56 -4 -21 -9 -51 -12 -66 -11 -63 59
-105 87 -52 18 33 55 30 93 -9 26 -26 30 -27 50 -13 18 12 22 25 25 81 3 64 2
68 -31 101 -30 30 -38 33 -90 33 -36 -1 -67 -7 -86 -19z m160 -28 c19 -15 24
-30 27 -85 4 -62 3 -66 -17 -66 -16 0 -21 6 -21 25 0 24 -2 25 -65 25 -63 0
-65 -1 -65 -25 0 -18 -5 -25 -20 -25 -18 0 -20 7 -20 59 0 86 23 111 100 111
41 0 64 -5 81 -19z"/>
<path d="M772 498 c-28 -28 -13 -38 53 -38 47 0 65 4 65 13 0 24 -23 37 -65
37 -23 0 -46 -5 -53 -12z"/>
<path d="M1055 546 c-14 -14 -26 -33 -26 -43 -8 -120 -8 -121 16 -143 18 -17
22 -27 15 -40 -7 -12 -6 -21 3 -28 7 -6 14 -23 15 -38 5 -63 44 -63 58 -1 3
18 11 38 16 45 16 19 -9 42 -45 42 -30 0 -30 1 -14 17 16 16 19 16 45 2 33
-19 59 -14 67 13 7 20 7 20 21 0 15 -22 51 -35 60 -20 13 21 30 -26 26 -74 -4
-55 8 -78 44 -78 28 0 59 29 46 42 -6 6 -6 24 -2 44 7 29 5 37 -11 47 -10 6
-19 19 -19 28 0 9 -13 22 -30 29 -28 12 -30 15 -30 70 0 60 -9 78 -52 101 -12
7 -34 8 -57 3 -20 -4 -40 -6 -46 -4 -46 13 -77 9 -100 -14z m97 -17 c14 -8 23
-8 31 0 15 15 72 14 85 -1 6 -7 12 -46 14 -86 3 -63 1 -72 -14 -72 -15 0 -18
10 -18 64 0 68 -7 81 -40 71 -17 -5 -20 -15 -20 -71 0 -57 -2 -64 -20 -64 -18
0 -20 7 -20 58 0 60 -11 82 -42 82 -16 0 -18 -9 -18 -70 0 -63 -2 -70 -20 -70
-18 0 -20 7 -20 69 0 50 4 74 16 85 18 19 57 21 86 5z m201 -155 c9 -10 -4
-34 -18 -34 -17 0 -28 17 -20 30 7 11 28 13 38 4z m-213 -64 c0 -5 -7 -10 -15
-10 -11 0 -16 -12 -17 -42 l-1 -43 -4 43 c-3 28 -9 42 -19 42 -8 0 -14 5 -14
10 0 6 16 10 35 10 19 0 35 -4 35 -10z m240 0 c0 -5 -11 -10 -25 -10 -14 0
-25 5 -25 10 0 6 11 10 25 10 14 0 25 -4 25 -10z m0 -40 c0 -5 -11 -10 -25
-10 -14 0 -25 5 -25 10 0 6 11 10 25 10 14 0 25 -4 25 -10z m5 -40 c-3 -5 -17
-10 -31 -10 -13 0 -24 5 -24 10 0 6 14 10 31 10 17 0 28 -4 24 -10z"/>
<path d="M1453 560 c-49 -11 -66 -35 -71 -99 -3 -47 1 -60 20 -85 23 -27 28
-28 114 -30 64 -1 96 3 107 13 18 15 23 51 7 51 -14 0 -13 63 2 95 9 21 9 28
-3 39 -16 16 -129 26 -176 16z m157 -37 c0 -16 -9 -18 -76 -15 -74 4 -93 -3
-94 -30 0 -5 36 -8 80 -8 64 0 80 -3 80 -15 0 -12 -16 -15 -81 -15 -60 0 -80
-3 -77 -12 3 -9 32 -14 86 -16 74 -3 82 -5 82 -22 0 -18 -7 -20 -78 -20 -104
0 -122 12 -122 85 0 76 12 85 116 85 73 0 84 -2 84 -17z"/>
<path d="M1739 541 c-27 -25 -33 -49 -30 -119 2 -37 50 -77 96 -79 59 -2 58
-2 48 -15 -6 -7 -13 -31 -16 -53 -8 -47 14 -80 42 -65 10 5 23 5 31 0 27 -17
40 1 40 54 0 29 -4 56 -9 61 -6 6 -4 20 4 35 l14 25 2 -35 1 -35 8 40 c6 33 4
42 -12 53 -20 14 -22 59 -2 55 5 -1 15 7 22 18 10 15 10 19 -2 19 -8 0 -16 -6
-19 -12 -2 -7 -8 -10 -12 -6 -4 4 6 19 21 33 16 15 23 24 16 20 -8 -4 -19 1
-27 11 -11 16 -28 19 -100 20 -81 2 -89 0 -116 -25z m201 -16 c0 -11 -18 -15
-82 -17 -71 -3 -83 -6 -86 -21 -3 -17 3 -18 72 -15 67 3 76 1 76 -14 0 -16
-10 -18 -75 -18 -60 0 -75 -3 -75 -15 0 -12 16 -15 85 -15 78 0 85 -2 85 -20
0 -18 -7 -20 -81 -20 -111 0 -119 6 -119 83 0 36 5 68 12 75 8 8 45 12 100 12
70 0 88 -3 88 -15z m-30 -190 c-12 -15 -30 -12 -30 6 0 5 10 9 21 9 18 0 19
-2 9 -15z m-43 -92 c-2 -16 -4 -3 -4 27 0 30 2 43 4 28 2 -16 2 -40 0 -55z
m63 27 c0 -27 -4 -50 -10 -50 -5 0 -10 9 -10 20 0 11 -7 20 -15 20 -8 0 -15 5
-15 10 0 6 7 10 15 10 8 0 15 9 15 20 0 11 5 20 10 20 6 0 10 -22 10 -50z"/>
<path d="M1576 318 c-9 -12 -16 -35 -16 -50 0 -53 66 -86 102 -51 18 19 18 21
3 37 -16 15 -16 19 -2 34 13 14 13 20 3 35 -19 25 -71 22 -90 -5z m76 -13 c-1
-5 -12 -10 -25 -10 -32 0 -32 -50 0 -50 31 -1 38 -12 13 -20 -25 -8 -60 19
-60 46 0 25 29 51 54 47 11 -2 20 -7 18 -13z"/>
<path d="M1940 12 c0 -4 9 -8 20 -8 11 0 20 4 20 8 0 4 -9 8 -20 8 -11 0 -20
-4 -20 -8z"/>
</g>
</svg>
